<?xml version="1.0" standalone="no"?>
<!DOCTYPE svg PUBLIC "-//W3C//DTD SVG 20010904//EN"
 "http://www.w3.org/TR/2001/REC-SVG-20010904/DTD/svg10.dtd">
<svg version="1.0" xmlns="http://www.w3.org/2000/svg"
 width="580.000000pt" height="580.000000pt" viewBox="0 0 580.000000 580.000000"
 preserveAspectRatio="xMidYMid meet">
<metadata>
Created by potrace 1.14, written by Peter Selinger 2001-2017
</metadata>
<g transform="translate(0.000000,580.000000) scale(0.100000,-0.100000)"
fill="#000000" stroke="none">
<path d="M4450 5649 c-107 -10 -422 -44 -700 -74 -912 -99 -1179 -121 -1606
-134 l-270 -8 -96 -45 c-183 -87 -344 -212 -369 -285 -21 -65 29 -121 124
-138 20 -4 39 -11 42 -15 3 -4 -30 -34 -72 -65 -104 -79 -114 -87 -219 -190
-179 -175 -302 -332 -421 -540 -153 -265 -276 -626 -309 -903 -3 -26 -8 -60
-11 -77 -9 -55 -11 -449 -3 -510 4 -33 11 -85 15 -115 15 -115 21 -147 60
-295 51 -197 83 -280 185 -490 53 -109 184 -319 249 -402 14 -18 26 -37 26
-42 0 -5 14 -20 30 -32 17 -13 36 -33 44 -44 32 -46 244 -246 340 -319 292
-223 606 -367 966 -442 11 -2 52 -9 90 -15 39 -6 81 -13 95 -16 46 -9 424 -11
495 -2 225 27 363 59 550 126 211 76 416 185 595 318 126 94 150 115 270 235
238 237 411 495 539 803 79 190 146 438 166 612 3 28 9 82 14 120 8 66 6 455
-3 520 -38 266 -80 435 -162 643 -79 200 -171 369 -299 546 -36 51 -49 76 -38
72 68 -19 237 -40 333 -40 165 -1 200 21 200 127 0 68 -30 155 -115 338 -37
79 -89 200 -117 269 -117 295 -232 478 -324 516 -40 17 -48 17 -294 -7z"/>
</g>
</svg>
