<?xml version="1.0" standalone="no"?>
<!DOCTYPE svg PUBLIC "-//W3C//DTD SVG 20010904//EN"
 "http://www.w3.org/TR/2001/REC-SVG-20010904/DTD/svg10.dtd">
<svg version="1.0" xmlns="http://www.w3.org/2000/svg"
 width="580.000000pt" height="580.000000pt" viewBox="0 0 580.000000 580.000000"
 preserveAspectRatio="xMidYMid meet">
<metadata>
Created by potrace 1.14, written by Peter Selinger 2001-2017
</metadata>
<g transform="translate(0.000000,580.000000) scale(0.100000,-0.100000)"
fill="#000000" stroke="none">
<path d="M4525 5639 c-313 -53 -781 -107 -1150 -133 -410 -30 -676 -38 -1175
-35 -391 2 -516 -1 -555 -11 -75 -19 -193 -76 -241 -115 -42 -35 -84 -105 -84
-141 0 -69 52 -150 119 -183 112 -57 245 -80 541 -91 256 -10 441 -28 680 -65
313 -49 890 -168 901 -187 15 -24 30 -194 30 -346 0 -303 -61 -602 -184 -907
-305 -758 -898 -1403 -1612 -1755 -319 -158 -568 -227 -850 -237 -238 -8 -375
22 -513 113 l-67 44 51 -48 c57 -53 141 -97 331 -171 190 -75 411 -187 549
-279 209 -140 358 -210 562 -263 226 -58 444 -72 686 -44 765 90 1523 576
1990 1275 108 161 244 441 305 625 91 273 128 521 118 790 -12 320 -79 581
-219 858 -33 65 -59 120 -57 121 2 2 28 11 57 21 72 23 189 103 251 171 69 76
122 184 128 266 6 79 -29 223 -94 388 -86 217 -155 329 -219 356 -45 19 -80
17 -279 -17z"/>
<path d="M365 1868 c-54 -42 -70 -129 -37 -201 l17 -39 1 50 c0 35 11 71 37
127 20 42 37 79 37 81 0 11 -31 1 -55 -18z"/>
</g>
</svg>
